<?xml version="1.0" encoding="UTF-8" standalone="no"?>
<svg
   width="767.53357"
   height="413.90619"
   version="1.1"
   id="svg60"
   sodipodi:docname="nn.svg"
   inkscape:version="1.3 (1:1.3+202307231459+0e150ed6c4)"
   inkscape:export-filename="nn.png"
   inkscape:export-xdpi="96"
   inkscape:export-ydpi="96"
   xmlns:inkscape="http://www.inkscape.org/namespaces/inkscape"
   xmlns:sodipodi="http://sodipodi.sourceforge.net/DTD/sodipodi-0.dtd"
   xmlns="http://www.w3.org/2000/svg"
   xmlns:svg="http://www.w3.org/2000/svg">
  <sodipodi:namedview
     id="namedview60"
     pagecolor="#ffffff"
     bordercolor="#000000"
     borderopacity="0.25"
     inkscape:showpageshadow="2"
     inkscape:pageopacity="0.0"
     inkscape:pagecheckerboard="0"
     inkscape:deskcolor="#d1d1d1"
     inkscape:zoom="0.41360053"
     inkscape:cx="534.33201"
     inkscape:cy="294.97061"
     inkscape:window-width="1366"
     inkscape:window-height="704"
     inkscape:window-x="0"
     inkscape:window-y="0"
     inkscape:window-maximized="1"
     inkscape:current-layer="g60"
     inkscape:export-bgcolor="#ffffffff" />
  <g
     transform="matrix(1.3566,0,0,1.3566,-693.0115,-248.38063)"
     id="g60"
     style="stroke-width:1.00029;stroke-dasharray:none">
    <path
       class="link"
       marker-end=""
       d="m 544.66667,314.5 122,-29"
       style="fill:none;stroke:#0008ff;stroke-width:1.00029;stroke-dasharray:none;stroke-opacity:1"
       id="path1" />
    <path
       class="link"
       marker-end=""
       d="m 544.66667,314.5 122,29"
       style="fill:none;stroke:#0008ff;stroke-width:1.00029;stroke-dasharray:none;stroke-opacity:1"
       id="path2" />
    <path
       class="link"
       marker-end=""
       d="m 544.66667,314.5 122,87"
       style="fill:none;stroke:#0008ff;stroke-width:1.00029;stroke-dasharray:none;stroke-opacity:1"
       id="path3" />
    <path
       class="link"
       marker-end=""
       d="m 666.66667,227.5 122,58"
       style="fill:none;stroke:#0008ff;stroke-width:1.00029;stroke-dasharray:none;stroke-opacity:1"
       id="path4" />
    <path
       class="link"
       marker-end=""
       d="m 666.66667,227.5 122,116"
       style="fill:none;stroke:#0008ff;stroke-width:1.00029;stroke-dasharray:none;stroke-opacity:1"
       id="path5" />
    <path
       class="link"
       marker-end=""
       d="m 666.66667,227.5 122,174"
       style="fill:none;stroke:#0008ff;stroke-width:1.00029;stroke-dasharray:none;stroke-opacity:1"
       id="path6" />
    <path
       class="link"
       marker-end=""
       d="m 666.66667,285.5 h 122"
       style="fill:none;stroke:#0008ff;stroke-width:1.00029;stroke-dasharray:none;stroke-opacity:1"
       id="path7" />
    <path
       class="link"
       marker-end=""
       d="m 666.66667,285.5 122,58"
       style="fill:none;stroke:#0008ff;stroke-width:1.00029;stroke-dasharray:none;stroke-opacity:1"
       id="path8" />
    <path
       class="link"
       marker-end=""
       d="m 666.66667,285.5 122,116"
       style="fill:none;stroke:#0008ff;stroke-width:1.00029;stroke-dasharray:none;stroke-opacity:1"
       id="path9" />
    <path
       class="link"
       marker-end=""
       d="m 666.66667,343.5 122,-58"
       style="fill:none;stroke:#0008ff;stroke-width:1.00029;stroke-dasharray:none;stroke-opacity:1"
       id="path10" />
    <path
       class="link"
       marker-end=""
       d="m 666.66667,343.5 h 122"
       style="fill:none;stroke:#0008ff;stroke-width:1.00029;stroke-dasharray:none;stroke-opacity:1"
       id="path11" />
    <path
       class="link"
       marker-end=""
       d="m 666.66667,343.5 122,58"
       style="fill:none;stroke:#0008ff;stroke-width:1.00029;stroke-dasharray:none;stroke-opacity:1"
       id="path12" />
    <path
       class="link"
       marker-end=""
       d="m 666.66667,401.5 122,-116"
       style="fill:none;stroke:#0008ff;stroke-width:1.00029;stroke-dasharray:none;stroke-opacity:1"
       id="path13" />
    <path
       class="link"
       marker-end=""
       d="m 666.66667,401.5 122,-58"
       style="fill:none;stroke:#0008ff;stroke-width:1.00029;stroke-dasharray:none;stroke-opacity:1"
       id="path14" />
    <path
       class="link"
       marker-end=""
       d="m 666.66667,401.5 h 122"
       style="fill:none;stroke:#0008ff;stroke-width:1.00029;stroke-dasharray:none;stroke-opacity:1"
       id="path15" />
    <path
       class="link"
       marker-end=""
       d="M 910.66667,229 1032.6667,206.5"
       style="fill:none;stroke:#0008ff;stroke-width:1.00029;stroke-dasharray:none;stroke-opacity:1"
       id="path16" />
    <path
       class="link"
       marker-end=""
       d="m 910.66667,229 122.00003,31.5"
       style="fill:none;stroke:#0008ff;stroke-width:1.00029;stroke-dasharray:none;stroke-opacity:1"
       id="path17" />
    <path
       class="link"
       marker-end=""
       d="m 910.66667,229 122.00003,85.5"
       style="fill:none;stroke:#0008ff;stroke-width:1.00029;stroke-dasharray:none;stroke-opacity:1"
       id="path18" />
    <path
       class="link"
       marker-end=""
       d="M 910.66667,229 1032.6667,368.5"
       style="fill:none;stroke:#0008ff;stroke-width:1.00029;stroke-dasharray:none;stroke-opacity:1"
       id="path19" />
    <path
       class="link"
       marker-end=""
       d="M 910.66667,229 1032.6667,422.5"
       style="fill:none;stroke:#0008ff;stroke-width:1.00029;stroke-dasharray:none;stroke-opacity:1"
       id="path20" />
    <path
       class="link"
       marker-end=""
       d="m 788.66667,227.5 122,58.5"
       style="fill:none;stroke:#0008ff;stroke-width:1.00029;stroke-dasharray:none;stroke-opacity:1"
       id="path21" />
    <path
       class="link"
       marker-end=""
       d="m 788.66667,227.5 122,115.5"
       style="fill:none;stroke:#0008ff;stroke-width:1.00029;stroke-dasharray:none;stroke-opacity:1"
       id="path22" />
    <path
       class="link"
       marker-end=""
       d="m 788.66667,227.5 122,172.5"
       style="fill:none;stroke:#0008ff;stroke-width:1.00029;stroke-dasharray:none;stroke-opacity:1"
       id="path23" />
    <path
       class="link"
       marker-end=""
       d="m 788.66667,285.5 122,0.5"
       style="fill:none;stroke:#0008ff;stroke-width:1.00029;stroke-dasharray:none;stroke-opacity:1"
       id="path24" />
    <path
       class="link"
       marker-end=""
       d="m 788.66667,285.5 122,57.5"
       style="fill:none;stroke:#0008ff;stroke-width:1.00029;stroke-dasharray:none;stroke-opacity:1"
       id="path25" />
    <path
       class="link"
       marker-end=""
       d="m 788.66667,285.5 122,114.5"
       style="fill:none;stroke:#0008ff;stroke-width:1.00029;stroke-dasharray:none;stroke-opacity:1"
       id="path26" />
    <path
       class="link"
       marker-end=""
       d="m 788.66667,343.5 122,-57.5"
       style="fill:none;stroke:#0008ff;stroke-width:1.00029;stroke-dasharray:none;stroke-opacity:1"
       id="path27" />
    <path
       class="link"
       marker-end=""
       d="m 788.66667,343.5 122,-0.5"
       style="fill:none;stroke:#0008ff;stroke-width:1.00029;stroke-dasharray:none;stroke-opacity:1"
       id="path28" />
    <path
       class="link"
       marker-end=""
       d="m 788.66667,343.5 122,56.5"
       style="fill:none;stroke:#0008ff;stroke-width:1.00029;stroke-dasharray:none;stroke-opacity:1"
       id="path29" />
    <path
       class="link"
       marker-end=""
       d="m 788.66667,401.5 122,-115.5"
       style="fill:none;stroke:#0008ff;stroke-width:1.00029;stroke-dasharray:none;stroke-opacity:1"
       id="path30" />
    <path
       class="link"
       marker-end=""
       d="m 788.66667,401.5 122,-58.5"
       style="fill:none;stroke:#0008ff;stroke-width:1.00029;stroke-dasharray:none;stroke-opacity:1"
       id="path31" />
    <path
       class="link"
       marker-end=""
       d="m 788.66667,401.5 122,-1.5"
       style="fill:none;stroke:#0008ff;stroke-width:1.00029;stroke-dasharray:none;stroke-opacity:1"
       id="path32" />
    <path
       class="link"
       marker-end=""
       d="M 910.66667,286 1032.6667,206.5"
       style="fill:none;stroke:#0008ff;stroke-width:1.00029;stroke-dasharray:none;stroke-opacity:1"
       id="path33" />
    <path
       class="link"
       marker-end=""
       d="M 910.66667,286 1032.6667,260.5"
       style="fill:none;stroke:#0008ff;stroke-width:1.00029;stroke-dasharray:none;stroke-opacity:1"
       id="path34" />
    <path
       class="link"
       marker-end=""
       d="m 910.66667,286 122.00003,28.5"
       style="fill:none;stroke:#0008ff;stroke-width:1.00029;stroke-dasharray:none;stroke-opacity:1"
       id="path35" />
    <path
       class="link"
       marker-end=""
       d="m 910.66667,286 122.00003,82.5"
       style="fill:none;stroke:#0008ff;stroke-width:1.00029;stroke-dasharray:none;stroke-opacity:1"
       id="path36" />
    <path
       class="link"
       marker-end=""
       d="M 910.66667,286 1032.6667,422.5"
       style="fill:none;stroke:#0008ff;stroke-width:1.00029;stroke-dasharray:none;stroke-opacity:1"
       id="path37" />
    <path
       class="link"
       marker-end=""
       d="M 910.66667,343 1032.6667,206.5"
       style="fill:none;stroke:#0008ff;stroke-width:1.00029;stroke-dasharray:none;stroke-opacity:1"
       id="path38" />
    <path
       class="link"
       marker-end=""
       d="M 910.66667,343 1032.6667,260.5"
       style="fill:none;stroke:#0008ff;stroke-width:1.00029;stroke-dasharray:none;stroke-opacity:1"
       id="path39" />
    <path
       class="link"
       marker-end=""
       d="M 910.66667,343 1032.6667,314.5"
       style="fill:none;stroke:#0008ff;stroke-width:1.00029;stroke-dasharray:none;stroke-opacity:1"
       id="path40" />
    <path
       class="link"
       marker-end=""
       d="m 910.66667,343 122.00003,25.5"
       style="fill:none;stroke:#0008ff;stroke-width:1.00029;stroke-dasharray:none;stroke-opacity:1"
       id="path41" />
    <path
       class="link"
       marker-end=""
       d="m 910.66667,343 122.00003,79.5"
       style="fill:none;stroke:#0008ff;stroke-width:1.00029;stroke-dasharray:none;stroke-opacity:1"
       id="path42" />
    <path
       class="link"
       marker-end=""
       d="M 910.66667,400 1032.6667,206.5"
       style="fill:none;stroke:#0008ff;stroke-width:1.00029;stroke-dasharray:none;stroke-opacity:1"
       id="path43" />
    <path
       class="link"
       marker-end=""
       d="M 910.66667,400 1032.6667,260.5"
       style="fill:none;stroke:#0008ff;stroke-width:1.00029;stroke-dasharray:none;stroke-opacity:1"
       id="path44" />
    <path
       class="link"
       marker-end=""
       d="M 910.66667,400 1032.6667,314.5"
       style="fill:none;stroke:#0008ff;stroke-width:1.00029;stroke-dasharray:none;stroke-opacity:1"
       id="path45" />
    <path
       class="link"
       marker-end=""
       d="M 910.66667,400 1032.6667,368.5"
       style="fill:none;stroke:#0008ff;stroke-width:1.00029;stroke-dasharray:none;stroke-opacity:1"
       id="path46" />
    <path
       class="link"
       marker-end=""
       d="m 910.66667,400 122.00003,22.5"
       style="fill:none;stroke:#0008ff;stroke-width:1.00029;stroke-dasharray:none;stroke-opacity:1"
       id="path47" />
    <path
       class="link"
       marker-end=""
       d="m 544.66667,314.5 122,-87"
       style="fill:none;stroke:#0008ff;stroke-width:1.00029;stroke-dasharray:none;stroke-opacity:1"
       id="path48" />
    <path
       class="link"
       marker-end=""
       d="m 666.66667,227.5 h 122"
       style="fill:none;stroke:#0008ff;stroke-width:1.00029;stroke-dasharray:none;stroke-opacity:1"
       id="path49" />
    <path
       class="link"
       marker-end=""
       d="m 666.66667,285.5 122,-58"
       style="fill:none;stroke:#0008ff;stroke-width:1.00029;stroke-dasharray:none;stroke-opacity:1"
       id="path50" />
    <path
       class="link"
       marker-end=""
       d="m 666.66667,343.5 122,-116"
       style="fill:none;stroke:#0008ff;stroke-width:1.00029;stroke-dasharray:none;stroke-opacity:1"
       id="path51" />
    <path
       class="link"
       marker-end=""
       d="m 666.66667,401.5 122,-174"
       style="fill:none;stroke:#0008ff;stroke-width:1.00029;stroke-dasharray:none;stroke-opacity:1"
       id="path52" />
    <path
       class="link"
       marker-end=""
       d="m 788.66667,227.5 122,1.5"
       style="fill:none;stroke:#0008ff;stroke-width:1.00029;stroke-dasharray:none;stroke-opacity:1"
       id="path53" />
    <path
       class="link"
       marker-end=""
       d="m 788.66667,285.5 122,-56.5"
       style="fill:none;stroke:#0008ff;stroke-width:1.00029;stroke-dasharray:none;stroke-opacity:1"
       id="path54" />
    <path
       class="link"
       marker-end=""
       d="m 788.66667,343.5 122,-114.5"
       style="fill:none;stroke:#0008ff;stroke-width:1.00029;stroke-dasharray:none;stroke-opacity:1"
       id="path55" />
    <path
       class="link"
       marker-end=""
       d="m 788.66667,401.5 122,-172.5"
       style="fill:none;stroke:#0008ff;stroke-width:1.00029;stroke-dasharray:none;stroke-opacity:1"
       id="path56" />
    <circle
       r="19.5"
       class="node"
       id="0_0"
       cx="544.66669"
       cy="314.5"
       style="display:inline;fill:#ffffff;stroke:#333333;stroke-width:1.00029;stroke-dasharray:none" />
    <circle
       r="19.5"
       class="node"
       id="1_0"
       cx="666.66669"
       cy="227.5"
       style="fill:#ffffff;stroke:#333333;stroke-width:1.00029;stroke-dasharray:none" />
    <circle
       r="19.5"
       class="node"
       id="1_1"
       cx="666.66669"
       cy="285.5"
       style="fill:#ffffff;stroke:#333333;stroke-width:1.00029;stroke-dasharray:none" />
    <circle
       r="19.5"
       class="node"
       id="1_2"
       cx="666.66669"
       cy="343.5"
       style="fill:#ffffff;stroke:#333333;stroke-width:1.00029;stroke-dasharray:none" />
    <text
       xml:space="preserve"
       style="font-style:normal;font-variant:normal;font-weight:normal;font-stretch:normal;font-size:17.6913px;font-family:Sans;-inkscape-font-specification:'Sans, Normal';font-variant-ligatures:normal;font-variant-caps:normal;font-variant-numeric:normal;font-variant-east-asian:normal;fill:#1a1a1a;stroke-width:1.00029;stroke-dasharray:none"
       x="659.08063"
       y="344.96866"
       id="text138-6"><tspan
         sodipodi:role="line"
         id="tspan138-1"
         style="font-size:17.6913px;stroke-width:1.00029"
         x="659.08063"
         y="344.96866">...</tspan></text>
    <circle
       r="19.5"
       class="node"
       id="1_3"
       cx="666.66669"
       cy="401.5"
       style="fill:#ffffff;stroke:#333333;stroke-width:1.00029;stroke-dasharray:none" />
    <text
       xml:space="preserve"
       style="font-style:normal;font-variant:normal;font-weight:normal;font-stretch:normal;font-size:17.6913px;font-family:Sans;-inkscape-font-specification:'Sans, Normal';font-variant-ligatures:normal;font-variant-caps:normal;font-variant-numeric:normal;font-variant-east-asian:normal;fill:#1a1a1a;stroke-width:1.00029;stroke-dasharray:none"
       x="658.54108"
       y="404.28223"
       id="text138-2"><tspan
         sodipodi:role="line"
         id="tspan138-9"
         style="font-size:17.6913px;stroke-width:1.00029"
         x="658.54108"
         y="404.28223">...</tspan></text>
    <circle
       r="19.5"
       class="node"
       id="2_0"
       cx="788.66669"
       cy="227.5"
       style="fill:#ffffff;stroke:#333333;stroke-width:1.00029;stroke-dasharray:none" />
    <text
       xml:space="preserve"
       style="font-style:normal;font-variant:normal;font-weight:normal;font-stretch:normal;font-size:17.6913px;font-family:Sans;-inkscape-font-specification:'Sans, Normal';font-variant-ligatures:normal;font-variant-caps:normal;font-variant-numeric:normal;font-variant-east-asian:normal;fill:#1a1a1a;stroke-width:1.00029;stroke-dasharray:none"
       x="781.84943"
       y="230.02185"
       id="text138-3"><tspan
         sodipodi:role="line"
         id="tspan138-19"
         style="font-size:17.6913px;stroke-width:1.00029"
         x="781.84943"
         y="230.02185">...</tspan></text>
    <circle
       r="19.5"
       class="node"
       id="2_1"
       cx="788.66669"
       cy="285.5"
       style="fill:#ffffff;stroke:#333333;stroke-width:1.00029;stroke-dasharray:none" />
    <text
       xml:space="preserve"
       style="font-style:normal;font-variant:normal;font-weight:normal;font-stretch:normal;font-size:17.6913px;font-family:Sans;-inkscape-font-specification:'Sans, Normal';font-variant-ligatures:normal;font-variant-caps:normal;font-variant-numeric:normal;font-variant-east-asian:normal;fill:#1a1a1a;stroke-width:1.00029;stroke-dasharray:none"
       x="780.57379"
       y="287.88824"
       id="text138-8"><tspan
         sodipodi:role="line"
         id="tspan138-4"
         style="font-size:17.6913px;stroke-width:1.00029"
         x="780.57379"
         y="287.88824">...</tspan></text>
    <circle
       r="19.5"
       class="node"
       id="2_2"
       cx="788.66669"
       cy="343.5"
       style="fill:#ffffff;stroke:#333333;stroke-width:1.00029;stroke-dasharray:none" />
    <circle
       r="19.5"
       class="node"
       id="2_3"
       cx="788.66669"
       cy="401.5"
       style="fill:#ffffff;stroke:#333333;stroke-width:1.00029;stroke-dasharray:none" />
    <circle
       r="19.5"
       class="node"
       id="3_0"
       cx="910.66669"
       cy="229"
       style="fill:#ffffff;stroke:#333333;stroke-width:1.00029;stroke-dasharray:none" />
    <text
       class="text"
       dy="0.34999999em"
       x="509.66666"
       y="481.5"
       style="font-style:normal;font-variant:normal;font-weight:normal;font-stretch:normal;font-size:12px;font-family:sans-serif;-inkscape-font-specification:'sans-serif, Normal';font-variant-ligatures:normal;font-variant-caps:normal;font-variant-numeric:normal;font-variant-east-asian:normal;display:inline;stroke-width:1.00029;stroke-dasharray:none"
       id="text56"
       inkscape:label="text56"><tspan
         sodipodi:role="line"
         id="tspan66"
         x="509.66666"
         y="481.5">Input Layer</tspan></text>
    <text
       class="text"
       dy="0.34999999em"
       x="631.66669"
       y="481.5"
       style="font-style:normal;font-variant:normal;font-weight:normal;font-stretch:normal;font-size:12px;font-family:sans-serif;-inkscape-font-specification:'sans-serif, Normal';font-variant-ligatures:normal;font-variant-caps:normal;font-variant-numeric:normal;font-variant-east-asian:normal;stroke-width:1.00029;stroke-dasharray:none"
       id="text57"><tspan
         sodipodi:role="line"
         id="tspan65"
         x="631.66669"
         y="481.5">Hidden Layer 1</tspan></text>
    <text
       class="text"
       dy="0.34999999em"
       x="753.66669"
       y="481.5"
       style="font-style:normal;font-variant:normal;font-weight:normal;font-stretch:normal;font-size:12px;font-family:sans-serif;-inkscape-font-specification:'sans-serif, Normal';font-variant-ligatures:normal;font-variant-caps:normal;font-variant-numeric:normal;font-variant-east-asian:normal;stroke-width:1.00029;stroke-dasharray:none"
       id="text58"><tspan
         sodipodi:role="line"
         id="tspan63"
         x="753.66669"
         y="481.5">Hidden Layer 2</tspan><tspan
         sodipodi:role="line"
         id="tspan64"
         x="753.66669"
         y="496.5" /></text>
    <text
       class="text"
       dy="0.34999999em"
       x="875.66669"
       y="481.5"
       style="font-style:normal;font-variant:normal;font-weight:normal;font-stretch:normal;font-size:12px;font-family:sans-serif;-inkscape-font-specification:'sans-serif, Normal';font-variant-ligatures:normal;font-variant-caps:normal;font-variant-numeric:normal;font-variant-east-asian:normal;stroke-width:1.00029;stroke-dasharray:none"
       id="text59"
       inkscape:label="text59"><tspan
         sodipodi:role="line"
         id="tspan62"
         x="875.66669"
         y="481.5">Hidden Layer 3</tspan></text>
    <circle
       r="19.5"
       class="node"
       id="3_1"
       cx="910.66669"
       cy="286"
       style="fill:#ffffff;stroke:#333333;stroke-width:1.00029;stroke-dasharray:none" />
    <circle
       r="19.5"
       class="node"
       id="3_2"
       cx="910.66669"
       cy="343"
       style="fill:#ffffff;stroke:#333333;stroke-width:1.00029;stroke-dasharray:none" />
    <text
       xml:space="preserve"
       style="font-style:normal;font-variant:normal;font-weight:normal;font-stretch:normal;font-size:17.6913px;font-family:Sans;-inkscape-font-specification:'Sans, Normal';font-variant-ligatures:normal;font-variant-caps:normal;font-variant-numeric:normal;font-variant-east-asian:normal;fill:#1a1a1a;stroke-width:1.00029;stroke-dasharray:none"
       x="903.03442"
       y="344.78412"
       id="text138-5"><tspan
         sodipodi:role="line"
         id="tspan138-0"
         style="font-size:17.6913px;stroke-width:1.00029"
         x="903.03442"
         y="344.78412">...</tspan></text>
    <circle
       r="19.5"
       class="node"
       id="3_3"
       cx="910.66669"
       cy="400"
       style="fill:#ffffff;stroke:#333333;stroke-width:1.00029;stroke-dasharray:none" />
    <circle
       r="19.5"
       class="node"
       id="4_0"
       cx="1032.6666"
       cy="206.5"
       style="fill:#ffffff;stroke:#333333;stroke-width:1.00029;stroke-dasharray:none" />
    <circle
       r="19.5"
       class="node"
       id="4_1"
       cx="1032.6666"
       cy="260.5"
       style="fill:#ffffff;stroke:#333333;stroke-width:1.00029;stroke-dasharray:none" />
    <circle
       r="19.5"
       class="node"
       id="4_2"
       cx="1032.6666"
       cy="314.5"
       style="fill:#ffffff;stroke:#333333;stroke-width:1.00029;stroke-dasharray:none" />
    <circle
       r="19.5"
       class="node"
       id="4_3"
       cx="1032.6666"
       cy="368.5"
       style="fill:#ffffff;stroke:#333333;stroke-width:1.00029;stroke-dasharray:none" />
    <circle
       r="19.5"
       class="node"
       id="4_4"
       cx="1032.6666"
       cy="422.5"
       style="fill:#ffffff;stroke:#333333;stroke-width:1.00029;stroke-dasharray:none" />
    <text
       class="text"
       dy="0.34999999em"
       x="997.66669"
       y="481.5"
       style="font-style:normal;font-variant:normal;font-weight:normal;font-stretch:normal;font-size:12px;font-family:sans-serif;-inkscape-font-specification:'sans-serif, Normal';font-variant-ligatures:normal;font-variant-caps:normal;font-variant-numeric:normal;font-variant-east-asian:normal;stroke-width:1.00029;stroke-dasharray:none"
       id="text60"><tspan
         sodipodi:role="line"
         id="tspan67"
         x="997.66669"
         y="481.5">Output Layer</tspan></text>
    <path
       style="fill:#e9afaf;stroke-width:1.64047;stroke-dasharray:none"
       d="m 531.90385,327.16958 c -14.20346,-6.4525 -19.40819,-24.38969 -10.68308,-36.81734 11.32208,-16.12665 34.23153,-14.06383 43.32102,3.90073 1.51911,3.00236 1.95347,6.1608 1.60339,11.65879 -0.62205,9.76906 -4.81782,16.14886 -13.44932,20.45012 -7.28174,3.62865 -14.00733,3.88991 -20.79201,0.8077 z"
       id="path67"
       transform="matrix(0.73713461,0,0,0.73713461,145.34521,90.20066)" />
    <text
       xml:space="preserve"
       style="font-style:normal;font-variant:normal;font-weight:normal;font-stretch:normal;font-size:12px;font-family:sans-serif;-inkscape-font-specification:'sans-serif, Normal';font-variant-ligatures:normal;font-variant-caps:normal;font-variant-numeric:normal;font-variant-east-asian:normal;fill:#000000;stroke-width:1.00029;stroke-dasharray:none"
       x="542.60071"
       y="318.69174"
       id="text68"><tspan
         sodipodi:role="line"
         id="tspan68"
         style="fill:#000000;stroke-width:1.00029"
         x="542.60071"
         y="318.69174">t</tspan></text>
    <circle
       style="fill:#000000;stroke-width:1.00029;stroke-dasharray:none"
       id="path68"
       cx="666.48804"
       cy="427.5304"
       r="1.6328259" />
    <circle
       style="fill:#000000;stroke-width:1.00029;stroke-dasharray:none"
       id="path68-6"
       cx="666.48804"
       cy="435.4223"
       r="1.6328259" />
    <circle
       style="fill:#000000;stroke-width:1.00029;stroke-dasharray:none"
       id="path68-0"
       cx="666.48804"
       cy="443.20459"
       r="1.6328259" />
    <text
       xml:space="preserve"
       style="font-style:normal;font-variant:normal;font-weight:normal;font-stretch:normal;font-size:12px;font-family:sans-serif;-inkscape-font-specification:'sans-serif, Normal';font-variant-ligatures:normal;font-variant-caps:normal;font-variant-numeric:normal;font-variant-east-asian:normal;fill:#000000;stroke-width:1.00029;stroke-dasharray:none"
       x="657.23566"
       y="456.02853"
       id="text69"><tspan
         sodipodi:role="line"
         id="tspan69"
         style="font-style:normal;font-variant:normal;font-weight:normal;font-stretch:normal;font-size:8.84562px;font-family:sans-serif;-inkscape-font-specification:'sans-serif, ';font-variant-ligatures:normal;font-variant-caps:normal;font-variant-numeric:normal;font-variant-east-asian:normal;stroke-width:1.00029"
         x="657.23566"
         y="456.02853">200</tspan></text>
    <circle
       style="fill:#000000;stroke-width:1.00029;stroke-dasharray:none"
       id="path68-61"
       cx="789.04285"
       cy="428.81265"
       r="1.6328259" />
    <circle
       style="fill:#000000;stroke-width:1.00029;stroke-dasharray:none"
       id="path68-6-8"
       cx="789.04285"
       cy="436.70456"
       r="1.6328259" />
    <circle
       style="fill:#000000;stroke-width:1.00029;stroke-dasharray:none"
       id="path68-0-7"
       cx="789.04285"
       cy="444.48685"
       r="1.6328259" />
    <text
       xml:space="preserve"
       style="font-style:normal;font-variant:normal;font-weight:normal;font-stretch:normal;font-size:12px;font-family:sans-serif;-inkscape-font-specification:'sans-serif, Normal';font-variant-ligatures:normal;font-variant-caps:normal;font-variant-numeric:normal;font-variant-east-asian:normal;fill:#000000;stroke-width:1.00029;stroke-dasharray:none"
       x="779.79047"
       y="457.31079"
       id="text69-9"><tspan
         sodipodi:role="line"
         id="tspan69-2"
         style="font-style:normal;font-variant:normal;font-weight:normal;font-stretch:normal;font-size:8.84562px;font-family:sans-serif;-inkscape-font-specification:'sans-serif, ';font-variant-ligatures:normal;font-variant-caps:normal;font-variant-numeric:normal;font-variant-east-asian:normal;stroke-width:1.00029"
         x="779.79047"
         y="457.31079">200</tspan></text>
    <circle
       style="fill:#000000;stroke-width:1.00029;stroke-dasharray:none"
       id="path68-02"
       cx="910.70038"
       cy="427.10565"
       r="1.6328259" />
    <circle
       style="fill:#000000;stroke-width:1.00029;stroke-dasharray:none"
       id="path68-6-3"
       cx="910.70038"
       cy="434.99756"
       r="1.6328259" />
    <circle
       style="fill:#000000;stroke-width:1.00029;stroke-dasharray:none"
       id="path68-0-75"
       cx="910.70038"
       cy="442.77985"
       r="1.6328259" />
    <text
       xml:space="preserve"
       style="font-style:normal;font-variant:normal;font-weight:normal;font-stretch:normal;font-size:12px;font-family:sans-serif;-inkscape-font-specification:'sans-serif, Normal';font-variant-ligatures:normal;font-variant-caps:normal;font-variant-numeric:normal;font-variant-east-asian:normal;fill:#000000;stroke-width:1.00029;stroke-dasharray:none"
       x="901.448"
       y="455.60379"
       id="text69-92"><tspan
         sodipodi:role="line"
         id="tspan69-28"
         style="font-style:normal;font-variant:normal;font-weight:normal;font-stretch:normal;font-size:8.84562px;font-family:sans-serif;-inkscape-font-specification:'sans-serif, ';font-variant-ligatures:normal;font-variant-caps:normal;font-variant-numeric:normal;font-variant-east-asian:normal;stroke-width:1.00029"
         x="901.448"
         y="455.60379">200</tspan></text>
    <text
       xml:space="preserve"
       style="font-style:normal;font-variant:normal;font-weight:normal;font-stretch:normal;font-size:8.84562px;font-family:sans-serif;-inkscape-font-specification:'sans-serif, ';font-variant-ligatures:normal;font-variant-caps:normal;font-variant-numeric:normal;font-variant-east-asian:normal;fill:#1a1a1a;stroke-width:1.00029;stroke-dasharray:none"
       x="926.38837"
       y="189.06441"
       id="text70"><tspan
         sodipodi:role="line"
         id="tspan70"
         style="font-style:normal;font-variant:normal;font-weight:normal;font-stretch:normal;font-size:7.86277px;font-family:Sans;-inkscape-font-specification:'Sans, Normal';font-variant-ligatures:normal;font-variant-caps:normal;font-variant-numeric:normal;font-variant-east-asian:normal;fill:#1a1a1a;stroke-width:1.00029"
         x="926.38837"
         y="189.06441">+ hidden layer #4 </tspan><tspan
         sodipodi:role="line"
         style="font-style:normal;font-variant:normal;font-weight:normal;font-stretch:normal;font-size:7.86277px;font-family:Sans;-inkscape-font-specification:'Sans, Normal';font-variant-ligatures:normal;font-variant-caps:normal;font-variant-numeric:normal;font-variant-east-asian:normal;fill:#1a1a1a;stroke-width:1.00029"
         x="926.38837"
         y="200.12143"
         id="tspan71">(200 neurons)</tspan></text>
    <g
       inkscape:label=""
       transform="matrix(0.737135,0,0,0.737135,1022.8578,201.48788)"
       id="g75">
      <g
         id="surface2"
         transform="matrix(1.33333,0,0,1.33333,-3.17817,-2.64083)">
        <g
           style="fill:#000000;fill-opacity:1"
           id="g9">
          <g
             id="use8"
             transform="translate(1.993,9.4650002)">
            <path
               style="stroke:none"
               d="M 7.53125,-5.765625 C 7.640625,-6.15625 7.8125,-6.46875 8.609375,-6.5 c 0.046875,0 0.171875,-0.015625 0.171875,-0.203125 0,0 0,-0.109375 -0.125,-0.109375 -0.328125,0 -0.6875,0.03125 -1.015625,0.03125 -0.328125,0 -0.6875,-0.03125 -1.015625,-0.03125 -0.0625,0 -0.171875,0 -0.171875,0.203125 C 6.453125,-6.5 6.546875,-6.5 6.625,-6.5 c 0.578125,0.015625 0.6875,0.21875 0.6875,0.4375 0,0.03125 -0.03125,0.1875 -0.03125,0.203125 l -1.125,4.4375 L 3.953125,-6.625 C 3.875,-6.796875 3.875,-6.8125 3.640625,-6.8125 h -1.34375 c -0.1875,0 -0.28125,0 -0.28125,0.203125 0,0.109375 0.09375,0.109375 0.28125,0.109375 0.046875,0 0.671875,0 0.671875,0.09375 L 1.640625,-1.0625 c -0.109375,0.40625 -0.28125,0.71875 -1.078125,0.75 -0.0625,0 -0.171875,0.015625 -0.171875,0.203125 0,0.0625 0.046875,0.109375 0.125,0.109375 0.328125,0 0.671875,-0.03125 1,-0.03125 C 1.859375,-0.03125 2.21875,0 2.546875,0 2.59375,0 2.71875,0 2.71875,-0.203125 2.71875,-0.296875 2.625,-0.3125 2.515625,-0.3125 1.9375,-0.328125 1.859375,-0.546875 1.859375,-0.75 c 0,-0.0625 0.015625,-0.125 0.046875,-0.234375 l 1.3125,-5.25 C 3.265625,-6.1875 3.265625,-6.15625 3.3125,-6.0625 l 2.484375,5.875 C 5.859375,-0.015625 5.890625,0 5.984375,0 6.09375,0 6.09375,-0.03125 6.140625,-0.203125 Z m 0,0"
               id="path71" />
          </g>
        </g>
        <g
           style="fill:#000000;fill-opacity:1"
           id="g10">
          <g
             id="use9"
             transform="translate(9.9969997,10.959)">
            <path
               style="stroke:none"
               d="m 2.328125,-4.4375 c 0,-0.1875 0,-0.1875 -0.203125,-0.1875 -0.453125,0.4375 -1.078125,0.4375 -1.359375,0.4375 v 0.25 c 0.15625,0 0.625,0 1,-0.1875 v 3.546875 c 0,0.234375 0,0.328125 -0.6875,0.328125 H 0.8125 V 0 c 0.125,0 0.984375,-0.03125 1.234375,-0.03125 0.21875,0 1.09375,0.03125 1.25,0.03125 V -0.25 H 3.03125 c -0.703125,0 -0.703125,-0.09375 -0.703125,-0.328125 z m 0,0"
               id="path72" />
          </g>
        </g>
        <g
           style="fill:#000000;fill-opacity:1"
           id="g11">
          <g
             id="use10"
             transform="translate(14.467,9.4650002)">
            <path
               style="stroke:none"
               d="m 3.296875,2.390625 c 0,-0.03125 0,-0.046875 -0.171875,-0.21875 C 1.890625,0.921875 1.5625,-0.96875 1.5625,-2.5 c 0,-1.734375 0.375,-3.46875 1.609375,-4.703125 0.125,-0.125 0.125,-0.140625 0.125,-0.171875 0,-0.078125 -0.03125,-0.109375 -0.09375,-0.109375 -0.109375,0 -1,0.6875 -1.59375,1.953125 -0.5,1.09375 -0.625,2.203125 -0.625,3.03125 0,0.78125 0.109375,1.984375 0.65625,3.125 C 2.25,1.84375 3.09375,2.5 3.203125,2.5 c 0.0625,0 0.09375,-0.03125 0.09375,-0.109375 z m 0,0"
               id="path73" />
          </g>
        </g>
        <g
           style="fill:#000000;fill-opacity:1"
           id="g12">
          <g
             id="use11"
             transform="translate(18.341,9.4650002)">
            <path
               style="stroke:none"
               d="m 2.046875,-3.984375 h 0.9375 c 0.203125,0 0.3125,0 0.3125,-0.203125 0,-0.109375 -0.109375,-0.109375 -0.28125,-0.109375 h -0.875 C 2.5,-5.71875 2.546875,-5.90625 2.546875,-5.96875 c 0,-0.171875 -0.125,-0.265625 -0.296875,-0.265625 -0.03125,0 -0.3125,0 -0.390625,0.359375 L 1.46875,-4.296875 h -0.9375 c -0.203125,0 -0.296875,0 -0.296875,0.1875 0,0.125 0.078125,0.125 0.28125,0.125 h 0.875 C 0.671875,-1.15625 0.625,-0.984375 0.625,-0.8125 0.625,-0.265625 1,0.109375 1.546875,0.109375 2.5625,0.109375 3.125,-1.34375 3.125,-1.421875 3.125,-1.53125 3.046875,-1.53125 3.015625,-1.53125 2.921875,-1.53125 2.90625,-1.5 2.859375,-1.390625 2.4375,-0.34375 1.90625,-0.109375 1.5625,-0.109375 c -0.203125,0 -0.3125,-0.125 -0.3125,-0.453125 0,-0.25 0.03125,-0.3125 0.0625,-0.484375 z m 0,0"
               id="path74" />
          </g>
        </g>
        <g
           style="fill:#000000;fill-opacity:1"
           id="g13">
          <g
             id="use12"
             transform="translate(21.938999,9.4650002)">
            <path
               style="stroke:none"
               d="m 2.875,-2.5 c 0,-0.765625 -0.109375,-1.96875 -0.65625,-3.109375 -0.59375,-1.21875 -1.453125,-1.875 -1.546875,-1.875 -0.0625,0 -0.109375,0.046875 -0.109375,0.109375 0,0.03125 0,0.046875 0.1875,0.234375 0.984375,0.984375 1.546875,2.5625 1.546875,4.640625 0,1.71875 -0.359375,3.46875 -1.59375,4.71875 C 0.5625,2.34375 0.5625,2.359375 0.5625,2.390625 0.5625,2.453125 0.609375,2.5 0.671875,2.5 0.765625,2.5 1.671875,1.8125 2.25,0.546875 2.765625,-0.546875 2.875,-1.65625 2.875,-2.5 Z m 0,0"
               id="path75" />
          </g>
        </g>
      </g>
    </g>
    <g
       inkscape:label=""
       transform="matrix(0.737137,0,0,0.737137,1022.8578,256.65685)"
       id="g87">
      <g
         id="g86"
         transform="matrix(1.33333,0,0,1.33333,-3.17817,-2.64083)">
        <g
           style="fill:#000000;fill-opacity:1"
           id="g77">
          <g
             id="g76"
             transform="translate(1.993,9.4650002)">
            <path
               style="stroke:none"
               d="M 7.53125,-5.765625 C 7.640625,-6.15625 7.8125,-6.46875 8.609375,-6.5 c 0.046875,0 0.171875,-0.015625 0.171875,-0.203125 0,0 0,-0.109375 -0.125,-0.109375 -0.328125,0 -0.6875,0.03125 -1.015625,0.03125 -0.328125,0 -0.6875,-0.03125 -1.015625,-0.03125 -0.0625,0 -0.171875,0 -0.171875,0.203125 C 6.453125,-6.5 6.546875,-6.5 6.625,-6.5 c 0.578125,0.015625 0.6875,0.21875 0.6875,0.4375 0,0.03125 -0.03125,0.1875 -0.03125,0.203125 l -1.125,4.4375 L 3.953125,-6.625 C 3.875,-6.796875 3.875,-6.8125 3.640625,-6.8125 h -1.34375 c -0.1875,0 -0.28125,0 -0.28125,0.203125 0,0.109375 0.09375,0.109375 0.28125,0.109375 0.046875,0 0.671875,0 0.671875,0.09375 L 1.640625,-1.0625 c -0.109375,0.40625 -0.28125,0.71875 -1.078125,0.75 -0.0625,0 -0.171875,0.015625 -0.171875,0.203125 0,0.0625 0.046875,0.109375 0.125,0.109375 0.328125,0 0.671875,-0.03125 1,-0.03125 C 1.859375,-0.03125 2.21875,0 2.546875,0 2.59375,0 2.71875,0 2.71875,-0.203125 2.71875,-0.296875 2.625,-0.3125 2.515625,-0.3125 1.9375,-0.328125 1.859375,-0.546875 1.859375,-0.75 c 0,-0.0625 0.015625,-0.125 0.046875,-0.234375 l 1.3125,-5.25 C 3.265625,-6.1875 3.265625,-6.15625 3.3125,-6.0625 l 2.484375,5.875 C 5.859375,-0.015625 5.890625,0 5.984375,0 6.09375,0 6.09375,-0.03125 6.140625,-0.203125 Z m 0,0"
               id="path76" />
          </g>
        </g>
        <g
           style="fill:#000000;fill-opacity:1"
           id="g79">
          <g
             id="g78"
             transform="translate(9.9969997,10.959)">
            <path
               style="stroke:none"
               d="M 3.515625,-1.265625 H 3.28125 c -0.015625,0.15625 -0.09375,0.5625 -0.1875,0.625 C 3.046875,-0.59375 2.515625,-0.59375 2.40625,-0.59375 H 1.125 c 0.734375,-0.640625 0.984375,-0.84375 1.390625,-1.171875 0.515625,-0.40625 1,-0.84375 1,-1.5 0,-0.84375 -0.734375,-1.359375 -1.625,-1.359375 -0.859375,0 -1.453125,0.609375 -1.453125,1.25 0,0.34375 0.296875,0.390625 0.375,0.390625 0.15625,0 0.359375,-0.125 0.359375,-0.375 0,-0.125 -0.046875,-0.375 -0.40625,-0.375 C 0.984375,-4.21875 1.453125,-4.375 1.78125,-4.375 c 0.703125,0 1.0625,0.546875 1.0625,1.109375 0,0.609375 -0.4375,1.078125 -0.65625,1.328125 L 0.515625,-0.265625 C 0.4375,-0.203125 0.4375,-0.1875 0.4375,0 h 2.875 z m 0,0"
               id="path77" />
          </g>
        </g>
        <g
           style="fill:#000000;fill-opacity:1"
           id="g81">
          <g
             id="g80"
             transform="translate(14.467,9.4650002)">
            <path
               style="stroke:none"
               d="m 3.296875,2.390625 c 0,-0.03125 0,-0.046875 -0.171875,-0.21875 C 1.890625,0.921875 1.5625,-0.96875 1.5625,-2.5 c 0,-1.734375 0.375,-3.46875 1.609375,-4.703125 0.125,-0.125 0.125,-0.140625 0.125,-0.171875 0,-0.078125 -0.03125,-0.109375 -0.09375,-0.109375 -0.109375,0 -1,0.6875 -1.59375,1.953125 -0.5,1.09375 -0.625,2.203125 -0.625,3.03125 0,0.78125 0.109375,1.984375 0.65625,3.125 C 2.25,1.84375 3.09375,2.5 3.203125,2.5 c 0.0625,0 0.09375,-0.03125 0.09375,-0.109375 z m 0,0"
               id="path79" />
          </g>
        </g>
        <g
           style="fill:#000000;fill-opacity:1"
           id="g83">
          <g
             id="g82"
             transform="translate(18.341,9.4650002)">
            <path
               style="stroke:none"
               d="m 2.046875,-3.984375 h 0.9375 c 0.203125,0 0.3125,0 0.3125,-0.203125 0,-0.109375 -0.109375,-0.109375 -0.28125,-0.109375 h -0.875 C 2.5,-5.71875 2.546875,-5.90625 2.546875,-5.96875 c 0,-0.171875 -0.125,-0.265625 -0.296875,-0.265625 -0.03125,0 -0.3125,0 -0.390625,0.359375 L 1.46875,-4.296875 h -0.9375 c -0.203125,0 -0.296875,0 -0.296875,0.1875 0,0.125 0.078125,0.125 0.28125,0.125 h 0.875 C 0.671875,-1.15625 0.625,-0.984375 0.625,-0.8125 0.625,-0.265625 1,0.109375 1.546875,0.109375 2.5625,0.109375 3.125,-1.34375 3.125,-1.421875 3.125,-1.53125 3.046875,-1.53125 3.015625,-1.53125 2.921875,-1.53125 2.90625,-1.5 2.859375,-1.390625 2.4375,-0.34375 1.90625,-0.109375 1.5625,-0.109375 c -0.203125,0 -0.3125,-0.125 -0.3125,-0.453125 0,-0.25 0.03125,-0.3125 0.0625,-0.484375 z m 0,0"
               id="path81" />
          </g>
        </g>
        <g
           style="fill:#000000;fill-opacity:1"
           id="g85">
          <g
             id="g84"
             transform="translate(21.938999,9.4650002)">
            <path
               style="stroke:none"
               d="m 2.875,-2.5 c 0,-0.765625 -0.109375,-1.96875 -0.65625,-3.109375 -0.59375,-1.21875 -1.453125,-1.875 -1.546875,-1.875 -0.0625,0 -0.109375,0.046875 -0.109375,0.109375 0,0.03125 0,0.046875 0.1875,0.234375 0.984375,0.984375 1.546875,2.5625 1.546875,4.640625 0,1.71875 -0.359375,3.46875 -1.59375,4.71875 C 0.5625,2.34375 0.5625,2.359375 0.5625,2.390625 0.5625,2.453125 0.609375,2.5 0.671875,2.5 0.765625,2.5 1.671875,1.8125 2.25,0.546875 2.765625,-0.546875 2.875,-1.65625 2.875,-2.5 Z m 0,0"
               id="path83" />
          </g>
        </g>
      </g>
    </g>
    <g
       inkscape:label=""
       transform="matrix(0.737137,0,0,0.737137,1022.8578,310.38872)"
       id="g99">
      <g
         id="g98"
         transform="matrix(1.33333,0,0,1.33333,-3.17817,-2.64083)">
        <g
           style="fill:#000000;fill-opacity:1"
           id="g89">
          <g
             id="g88"
             transform="translate(1.993,9.4650002)">
            <path
               style="stroke:none"
               d="M 7.53125,-5.765625 C 7.640625,-6.15625 7.8125,-6.46875 8.609375,-6.5 c 0.046875,0 0.171875,-0.015625 0.171875,-0.203125 0,0 0,-0.109375 -0.125,-0.109375 -0.328125,0 -0.6875,0.03125 -1.015625,0.03125 -0.328125,0 -0.6875,-0.03125 -1.015625,-0.03125 -0.0625,0 -0.171875,0 -0.171875,0.203125 C 6.453125,-6.5 6.546875,-6.5 6.625,-6.5 c 0.578125,0.015625 0.6875,0.21875 0.6875,0.4375 0,0.03125 -0.03125,0.1875 -0.03125,0.203125 l -1.125,4.4375 L 3.953125,-6.625 C 3.875,-6.796875 3.875,-6.8125 3.640625,-6.8125 h -1.34375 c -0.1875,0 -0.28125,0 -0.28125,0.203125 0,0.109375 0.09375,0.109375 0.28125,0.109375 0.046875,0 0.671875,0 0.671875,0.09375 L 1.640625,-1.0625 c -0.109375,0.40625 -0.28125,0.71875 -1.078125,0.75 -0.0625,0 -0.171875,0.015625 -0.171875,0.203125 0,0.0625 0.046875,0.109375 0.125,0.109375 0.328125,0 0.671875,-0.03125 1,-0.03125 C 1.859375,-0.03125 2.21875,0 2.546875,0 2.59375,0 2.71875,0 2.71875,-0.203125 2.71875,-0.296875 2.625,-0.3125 2.515625,-0.3125 1.9375,-0.328125 1.859375,-0.546875 1.859375,-0.75 c 0,-0.0625 0.015625,-0.125 0.046875,-0.234375 l 1.3125,-5.25 C 3.265625,-6.1875 3.265625,-6.15625 3.3125,-6.0625 l 2.484375,5.875 C 5.859375,-0.015625 5.890625,0 5.984375,0 6.09375,0 6.09375,-0.03125 6.140625,-0.203125 Z m 0,0"
               id="path87" />
          </g>
        </g>
        <g
           style="fill:#000000;fill-opacity:1"
           id="g91">
          <g
             id="g90"
             transform="translate(9.9969997,10.959)">
            <path
               style="stroke:none"
               d="m 1.90625,-2.328125 c 0.546875,0 0.9375,0.375 0.9375,1.125 0,0.859375 -0.515625,1.125 -0.90625,1.125 -0.28125,0 -0.90625,-0.078125 -1.1875,-0.5 0.328125,0 0.40625,-0.234375 0.40625,-0.390625 0,-0.21875 -0.171875,-0.375 -0.390625,-0.375 -0.1875,0 -0.390625,0.125 -0.390625,0.40625 0,0.65625 0.71875,1.078125 1.5625,1.078125 0.96875,0 1.640625,-0.65625 1.640625,-1.34375 0,-0.546875 -0.4375,-1.09375 -1.203125,-1.25 0.71875,-0.265625 0.984375,-0.78125 0.984375,-1.21875 0,-0.546875 -0.625,-0.953125 -1.40625,-0.953125 -0.765625,0 -1.359375,0.375 -1.359375,0.9375 0,0.234375 0.15625,0.359375 0.359375,0.359375 0.21875,0 0.359375,-0.15625 0.359375,-0.34375 0,-0.203125 -0.140625,-0.359375 -0.359375,-0.375 0.25,-0.296875 0.71875,-0.375 0.984375,-0.375 0.3125,0 0.75,0.15625 0.75,0.75 0,0.296875 -0.09375,0.625 -0.28125,0.828125 -0.21875,0.265625 -0.421875,0.28125 -0.765625,0.3125 -0.171875,0.015625 -0.1875,0.015625 -0.21875,0.015625 -0.015625,0 -0.078125,0.015625 -0.078125,0.09375 0,0.09375 0.0625,0.09375 0.1875,0.09375 z m 0,0"
               id="path89" />
          </g>
        </g>
        <g
           style="fill:#000000;fill-opacity:1"
           id="g93">
          <g
             id="g92"
             transform="translate(14.467,9.4650002)">
            <path
               style="stroke:none"
               d="m 3.296875,2.390625 c 0,-0.03125 0,-0.046875 -0.171875,-0.21875 C 1.890625,0.921875 1.5625,-0.96875 1.5625,-2.5 c 0,-1.734375 0.375,-3.46875 1.609375,-4.703125 0.125,-0.125 0.125,-0.140625 0.125,-0.171875 0,-0.078125 -0.03125,-0.109375 -0.09375,-0.109375 -0.109375,0 -1,0.6875 -1.59375,1.953125 -0.5,1.09375 -0.625,2.203125 -0.625,3.03125 0,0.78125 0.109375,1.984375 0.65625,3.125 C 2.25,1.84375 3.09375,2.5 3.203125,2.5 c 0.0625,0 0.09375,-0.03125 0.09375,-0.109375 z m 0,0"
               id="path91" />
          </g>
        </g>
        <g
           style="fill:#000000;fill-opacity:1"
           id="g95">
          <g
             id="g94"
             transform="translate(18.341,9.4650002)">
            <path
               style="stroke:none"
               d="m 2.046875,-3.984375 h 0.9375 c 0.203125,0 0.3125,0 0.3125,-0.203125 0,-0.109375 -0.109375,-0.109375 -0.28125,-0.109375 h -0.875 C 2.5,-5.71875 2.546875,-5.90625 2.546875,-5.96875 c 0,-0.171875 -0.125,-0.265625 -0.296875,-0.265625 -0.03125,0 -0.3125,0 -0.390625,0.359375 L 1.46875,-4.296875 h -0.9375 c -0.203125,0 -0.296875,0 -0.296875,0.1875 0,0.125 0.078125,0.125 0.28125,0.125 h 0.875 C 0.671875,-1.15625 0.625,-0.984375 0.625,-0.8125 0.625,-0.265625 1,0.109375 1.546875,0.109375 2.5625,0.109375 3.125,-1.34375 3.125,-1.421875 3.125,-1.53125 3.046875,-1.53125 3.015625,-1.53125 2.921875,-1.53125 2.90625,-1.5 2.859375,-1.390625 2.4375,-0.34375 1.90625,-0.109375 1.5625,-0.109375 c -0.203125,0 -0.3125,-0.125 -0.3125,-0.453125 0,-0.25 0.03125,-0.3125 0.0625,-0.484375 z m 0,0"
               id="path93" />
          </g>
        </g>
        <g
           style="fill:#000000;fill-opacity:1"
           id="g97">
          <g
             id="g96"
             transform="translate(21.938999,9.4650002)">
            <path
               style="stroke:none"
               d="m 2.875,-2.5 c 0,-0.765625 -0.109375,-1.96875 -0.65625,-3.109375 -0.59375,-1.21875 -1.453125,-1.875 -1.546875,-1.875 -0.0625,0 -0.109375,0.046875 -0.109375,0.109375 0,0.03125 0,0.046875 0.1875,0.234375 0.984375,0.984375 1.546875,2.5625 1.546875,4.640625 0,1.71875 -0.359375,3.46875 -1.59375,4.71875 C 0.5625,2.34375 0.5625,2.359375 0.5625,2.390625 0.5625,2.453125 0.609375,2.5 0.671875,2.5 0.765625,2.5 1.671875,1.8125 2.25,0.546875 2.765625,-0.546875 2.875,-1.65625 2.875,-2.5 Z m 0,0"
               id="path95" />
          </g>
        </g>
      </g>
    </g>
    <g
       inkscape:label=""
       transform="matrix(0.737137,0,0,0.737137,1022.8578,363.74575)"
       id="g111">
      <g
         id="g110"
         transform="matrix(1.33333,0,0,1.33333,-3.17817,-2.64083)">
        <g
           style="fill:#000000;fill-opacity:1"
           id="g101">
          <g
             id="g100"
             transform="translate(1.993,9.4650002)">
            <path
               style="stroke:none"
               d="M 7.53125,-5.765625 C 7.640625,-6.15625 7.8125,-6.46875 8.609375,-6.5 c 0.046875,0 0.171875,-0.015625 0.171875,-0.203125 0,0 0,-0.109375 -0.125,-0.109375 -0.328125,0 -0.6875,0.03125 -1.015625,0.03125 -0.328125,0 -0.6875,-0.03125 -1.015625,-0.03125 -0.0625,0 -0.171875,0 -0.171875,0.203125 C 6.453125,-6.5 6.546875,-6.5 6.625,-6.5 c 0.578125,0.015625 0.6875,0.21875 0.6875,0.4375 0,0.03125 -0.03125,0.1875 -0.03125,0.203125 l -1.125,4.4375 L 3.953125,-6.625 C 3.875,-6.796875 3.875,-6.8125 3.640625,-6.8125 h -1.34375 c -0.1875,0 -0.28125,0 -0.28125,0.203125 0,0.109375 0.09375,0.109375 0.28125,0.109375 0.046875,0 0.671875,0 0.671875,0.09375 L 1.640625,-1.0625 c -0.109375,0.40625 -0.28125,0.71875 -1.078125,0.75 -0.0625,0 -0.171875,0.015625 -0.171875,0.203125 0,0.0625 0.046875,0.109375 0.125,0.109375 0.328125,0 0.671875,-0.03125 1,-0.03125 C 1.859375,-0.03125 2.21875,0 2.546875,0 2.59375,0 2.71875,0 2.71875,-0.203125 2.71875,-0.296875 2.625,-0.3125 2.515625,-0.3125 1.9375,-0.328125 1.859375,-0.546875 1.859375,-0.75 c 0,-0.0625 0.015625,-0.125 0.046875,-0.234375 l 1.3125,-5.25 C 3.265625,-6.1875 3.265625,-6.15625 3.3125,-6.0625 l 2.484375,5.875 C 5.859375,-0.015625 5.890625,0 5.984375,0 6.09375,0 6.09375,-0.03125 6.140625,-0.203125 Z m 0,0"
               id="path99" />
          </g>
        </g>
        <g
           style="fill:#000000;fill-opacity:1"
           id="g103">
          <g
             id="g102"
             transform="translate(9.9969997,10.959)">
            <path
               style="stroke:none"
               d="m 3.6875,-1.140625 v -0.25 H 2.90625 V -4.5 c 0,-0.140625 0,-0.203125 -0.140625,-0.203125 -0.09375,0 -0.125,0 -0.1875,0.109375 l -2.3125,3.203125 v 0.25 h 2.0625 v 0.5625 c 0,0.25 0,0.328125 -0.578125,0.328125 H 1.5625 V 0 C 1.921875,-0.015625 2.359375,-0.03125 2.609375,-0.03125 2.875,-0.03125 3.3125,-0.015625 3.671875,0 v -0.25 h -0.1875 C 2.90625,-0.25 2.90625,-0.328125 2.90625,-0.578125 v -0.5625 z M 2.375,-3.9375 v 2.546875 H 0.53125 Z m 0,0"
               id="path101" />
          </g>
        </g>
        <g
           style="fill:#000000;fill-opacity:1"
           id="g105">
          <g
             id="g104"
             transform="translate(14.467,9.4650002)">
            <path
               style="stroke:none"
               d="m 3.296875,2.390625 c 0,-0.03125 0,-0.046875 -0.171875,-0.21875 C 1.890625,0.921875 1.5625,-0.96875 1.5625,-2.5 c 0,-1.734375 0.375,-3.46875 1.609375,-4.703125 0.125,-0.125 0.125,-0.140625 0.125,-0.171875 0,-0.078125 -0.03125,-0.109375 -0.09375,-0.109375 -0.109375,0 -1,0.6875 -1.59375,1.953125 -0.5,1.09375 -0.625,2.203125 -0.625,3.03125 0,0.78125 0.109375,1.984375 0.65625,3.125 C 2.25,1.84375 3.09375,2.5 3.203125,2.5 c 0.0625,0 0.09375,-0.03125 0.09375,-0.109375 z m 0,0"
               id="path103" />
          </g>
        </g>
        <g
           style="fill:#000000;fill-opacity:1"
           id="g107">
          <g
             id="g106"
             transform="translate(18.341,9.4650002)">
            <path
               style="stroke:none"
               d="m 2.046875,-3.984375 h 0.9375 c 0.203125,0 0.3125,0 0.3125,-0.203125 0,-0.109375 -0.109375,-0.109375 -0.28125,-0.109375 h -0.875 C 2.5,-5.71875 2.546875,-5.90625 2.546875,-5.96875 c 0,-0.171875 -0.125,-0.265625 -0.296875,-0.265625 -0.03125,0 -0.3125,0 -0.390625,0.359375 L 1.46875,-4.296875 h -0.9375 c -0.203125,0 -0.296875,0 -0.296875,0.1875 0,0.125 0.078125,0.125 0.28125,0.125 h 0.875 C 0.671875,-1.15625 0.625,-0.984375 0.625,-0.8125 0.625,-0.265625 1,0.109375 1.546875,0.109375 2.5625,0.109375 3.125,-1.34375 3.125,-1.421875 3.125,-1.53125 3.046875,-1.53125 3.015625,-1.53125 2.921875,-1.53125 2.90625,-1.5 2.859375,-1.390625 2.4375,-0.34375 1.90625,-0.109375 1.5625,-0.109375 c -0.203125,0 -0.3125,-0.125 -0.3125,-0.453125 0,-0.25 0.03125,-0.3125 0.0625,-0.484375 z m 0,0"
               id="path105" />
          </g>
        </g>
        <g
           style="fill:#000000;fill-opacity:1"
           id="g109">
          <g
             id="g108"
             transform="translate(21.938999,9.4650002)">
            <path
               style="stroke:none"
               d="m 2.875,-2.5 c 0,-0.765625 -0.109375,-1.96875 -0.65625,-3.109375 -0.59375,-1.21875 -1.453125,-1.875 -1.546875,-1.875 -0.0625,0 -0.109375,0.046875 -0.109375,0.109375 0,0.03125 0,0.046875 0.1875,0.234375 0.984375,0.984375 1.546875,2.5625 1.546875,4.640625 0,1.71875 -0.359375,3.46875 -1.59375,4.71875 C 0.5625,2.34375 0.5625,2.359375 0.5625,2.390625 0.5625,2.453125 0.609375,2.5 0.671875,2.5 0.765625,2.5 1.671875,1.8125 2.25,0.546875 2.765625,-0.546875 2.875,-1.65625 2.875,-2.5 Z m 0,0"
               id="path107" />
          </g>
        </g>
      </g>
    </g>
    <g
       inkscape:label=""
       transform="matrix(0.737137,0,0,0.737137,1022.9114,418.74642)"
       id="g131">
      <g
         id="g130"
         transform="matrix(1.33333,0,0,1.33333,-3.17817,-2.6395)">
        <g
           style="fill:#000000;fill-opacity:1"
           id="g121">
          <g
             id="g120"
             transform="translate(1.993,9.4639997)">
            <path
               style="stroke:none"
               d="M 7.53125,-5.765625 C 7.640625,-6.15625 7.8125,-6.46875 8.609375,-6.5 c 0.046875,0 0.171875,-0.015625 0.171875,-0.203125 0,0 0,-0.109375 -0.125,-0.109375 -0.328125,0 -0.6875,0.03125 -1.015625,0.03125 -0.328125,0 -0.6875,-0.03125 -1.015625,-0.03125 -0.0625,0 -0.171875,0 -0.171875,0.203125 C 6.453125,-6.5 6.546875,-6.5 6.625,-6.5 c 0.578125,0.015625 0.6875,0.21875 0.6875,0.4375 0,0.03125 -0.03125,0.1875 -0.03125,0.203125 l -1.125,4.4375 L 3.953125,-6.625 C 3.875,-6.796875 3.875,-6.8125 3.640625,-6.8125 h -1.34375 c -0.1875,0 -0.28125,0 -0.28125,0.203125 0,0.109375 0.09375,0.109375 0.28125,0.109375 0.046875,0 0.671875,0 0.671875,0.09375 L 1.640625,-1.0625 c -0.109375,0.40625 -0.28125,0.71875 -1.078125,0.75 -0.0625,0 -0.171875,0.015625 -0.171875,0.203125 0,0.0625 0.046875,0.109375 0.125,0.109375 0.328125,0 0.671875,-0.03125 1,-0.03125 C 1.859375,-0.03125 2.21875,0 2.546875,0 2.59375,0 2.71875,0 2.71875,-0.203125 2.71875,-0.296875 2.625,-0.3125 2.515625,-0.3125 1.9375,-0.328125 1.859375,-0.546875 1.859375,-0.75 c 0,-0.0625 0.015625,-0.125 0.046875,-0.234375 l 1.3125,-5.25 C 3.265625,-6.1875 3.265625,-6.15625 3.3125,-6.0625 l 2.484375,5.875 C 5.859375,-0.015625 5.890625,0 5.984375,0 6.09375,0 6.09375,-0.03125 6.140625,-0.203125 Z m 0,0"
               id="path119" />
          </g>
        </g>
        <g
           style="fill:#000000;fill-opacity:1"
           id="g123">
          <g
             id="g122"
             transform="translate(9.9969997,10.958)">
            <path
               style="stroke:none"
               d="M 1.890625,0.484375 C 1.9375,0.5 2.109375,0.5625 2.171875,0.578125 c 0.34375,0.125 0.4375,0.140625 0.4375,0.328125 0,0.09375 -0.078125,0.3125 -0.3125,0.3125 -0.109375,0 -0.375,-0.015625 -0.6875,-0.1875 C 1.5625,0.984375 1.546875,0.984375 1.53125,0.984375 c -0.046875,0 -0.109375,0.03125 -0.109375,0.109375 0,0.125 0.5,0.328125 0.875,0.328125 0.484375,0 0.75,-0.4375 0.75,-0.765625 0,-0.265625 -0.140625,-0.390625 -0.28125,-0.46875 C 2.703125,0.15625 1.828125,-0.140625 1.75,-0.171875 1.078125,-0.40625 0.703125,-0.53125 0.703125,-0.9375 c 0,-0.25 0.25,-0.796875 0.84375,-1.109375 0.296875,0.109375 0.59375,0.109375 0.71875,0.109375 0.25,0 0.71875,0 0.71875,-0.265625 0,-0.21875 -0.390625,-0.21875 -0.640625,-0.21875 -0.15625,0 -0.375,0 -0.65625,0.09375 -0.1875,-0.140625 -0.234375,-0.375 -0.234375,-0.53125 0,-0.40625 0.28125,-0.890625 0.8125,-1.140625 0.15625,0.1875 0.328125,0.1875 0.5,0.1875 0.21875,0 0.6875,0 0.6875,-0.265625 0,-0.21875 -0.390625,-0.21875 -0.640625,-0.21875 -0.109375,0 -0.265625,0 -0.453125,0.03125 0,0 -0.03125,-0.125 -0.03125,-0.203125 0,-0.078125 0.015625,-0.171875 0.03125,-0.234375 C 2.359375,-4.71875 2.375,-4.75 2.375,-4.765625 2.375,-4.8125 2.328125,-4.875 2.265625,-4.875 c -0.171875,0 -0.171875,0.265625 -0.171875,0.390625 0,0.03125 0,0.171875 0.03125,0.265625 -0.953125,0.265625 -1.28125,0.859375 -1.28125,1.3125 0,0.28125 0.125,0.5625 0.453125,0.75 -0.78125,0.453125 -1.015625,1.140625 -1.015625,1.4375 0,0.640625 0.671875,0.875 0.890625,0.953125 z M 3.1875,-4.0625 c -0.0625,0.015625 -0.140625,0.046875 -0.421875,0.046875 -0.109375,0 -0.1875,0 -0.28125,-0.046875 0.125,-0.03125 0.1875,-0.03125 0.328125,-0.03125 0.21875,0 0.265625,0 0.375,0.03125 z m -0.484375,1.875 c -0.09375,0.03125 -0.1875,0.046875 -0.421875,0.046875 -0.125,0 -0.21875,0 -0.34375,-0.046875 0.1875,-0.03125 0.25,-0.03125 0.40625,-0.03125 0.21875,0 0.234375,0 0.359375,0.03125 z m 0,0"
               id="path121" />
          </g>
        </g>
        <g
           style="fill:#000000;fill-opacity:1"
           id="g125">
          <g
             id="g124"
             transform="translate(14.358,9.4639997)">
            <path
               style="stroke:none"
               d="m 3.296875,2.390625 c 0,-0.03125 0,-0.046875 -0.171875,-0.21875 C 1.890625,0.921875 1.5625,-0.96875 1.5625,-2.5 c 0,-1.734375 0.375,-3.46875 1.609375,-4.703125 0.125,-0.125 0.125,-0.140625 0.125,-0.171875 0,-0.078125 -0.03125,-0.109375 -0.09375,-0.109375 -0.109375,0 -1,0.6875 -1.59375,1.953125 -0.5,1.09375 -0.625,2.203125 -0.625,3.03125 0,0.78125 0.109375,1.984375 0.65625,3.125 C 2.25,1.84375 3.09375,2.5 3.203125,2.5 c 0.0625,0 0.09375,-0.03125 0.09375,-0.109375 z m 0,0"
               id="path123" />
          </g>
        </g>
        <g
           style="fill:#000000;fill-opacity:1"
           id="g127">
          <g
             id="g126"
             transform="translate(18.233,9.4639997)">
            <path
               style="stroke:none"
               d="m 2.046875,-3.984375 h 0.9375 c 0.203125,0 0.3125,0 0.3125,-0.203125 0,-0.109375 -0.109375,-0.109375 -0.28125,-0.109375 h -0.875 C 2.5,-5.71875 2.546875,-5.90625 2.546875,-5.96875 c 0,-0.171875 -0.125,-0.265625 -0.296875,-0.265625 -0.03125,0 -0.3125,0 -0.390625,0.359375 L 1.46875,-4.296875 h -0.9375 c -0.203125,0 -0.296875,0 -0.296875,0.1875 0,0.125 0.078125,0.125 0.28125,0.125 h 0.875 C 0.671875,-1.15625 0.625,-0.984375 0.625,-0.8125 0.625,-0.265625 1,0.109375 1.546875,0.109375 2.5625,0.109375 3.125,-1.34375 3.125,-1.421875 3.125,-1.53125 3.046875,-1.53125 3.015625,-1.53125 2.921875,-1.53125 2.90625,-1.5 2.859375,-1.390625 2.4375,-0.34375 1.90625,-0.109375 1.5625,-0.109375 c -0.203125,0 -0.3125,-0.125 -0.3125,-0.453125 0,-0.25 0.03125,-0.3125 0.0625,-0.484375 z m 0,0"
               id="path125" />
          </g>
        </g>
        <g
           style="fill:#000000;fill-opacity:1"
           id="g129">
          <g
             id="g128"
             transform="translate(21.83,9.4639997)">
            <path
               style="stroke:none"
               d="m 2.875,-2.5 c 0,-0.765625 -0.109375,-1.96875 -0.65625,-3.109375 -0.59375,-1.21875 -1.453125,-1.875 -1.546875,-1.875 -0.0625,0 -0.109375,0.046875 -0.109375,0.109375 0,0.03125 0,0.046875 0.1875,0.234375 0.984375,0.984375 1.546875,2.5625 1.546875,4.640625 0,1.71875 -0.359375,3.46875 -1.59375,4.71875 C 0.5625,2.34375 0.5625,2.359375 0.5625,2.390625 0.5625,2.453125 0.609375,2.5 0.671875,2.5 0.765625,2.5 1.671875,1.8125 2.25,0.546875 2.765625,-0.546875 2.875,-1.65625 2.875,-2.5 Z m 0,0"
               id="path127" />
          </g>
        </g>
      </g>
    </g>
    <path
       style="fill:#ececec;stroke-width:0.579994;stroke-dasharray:none"
       d="m 1197.2262,182.47058 c -8.46,-2.27542 -15.9939,-9.87644 -18.2056,-18.36778 -0.8248,-3.16638 -0.834,-9.51722 -0.018,-12.58622 2.9831,-11.22426 13.2362,-19.24931 24.5652,-19.2271 12.0206,0.0236 22.3054,8.22042 25.0719,19.98198 0.8697,3.69739 0.5836,9.51555 -0.6607,13.43766 -1.1313,3.56573 -4.5029,8.67326 -7.3964,11.20443 -2.558,2.23766 -7.2394,4.71367 -10.5866,5.59923 -2.9819,0.78893 -9.7625,0.76652 -12.7694,-0.0422 z m 13.2701,-19.31101 c -2.0718,-2.9096 -2.1747,-7.75202 -0.2258,-10.62389 1.1673,-1.72012 1.0337,-2.41705 -0.242,-1.26256 -1.4616,1.32273 -2.1699,3.43406 -2.1699,6.46794 0,2.32399 0.2127,3.25269 1.0865,4.74376 0.5976,1.01972 1.38,1.85404 1.7388,1.85404 0.5393,0 0.5069,-0.20405 -0.1876,-1.17929 z m 8.4016,0 c 2.46,-3.45472 2.0981,-9.25064 -0.7377,-11.81709 -1.1718,-1.06044 -1.1441,-0.2901 0.063,1.75246 0.7508,1.27028 0.9617,2.28348 0.9617,4.61908 0,2.33559 -0.2109,3.34879 -0.9617,4.61908 -1.0781,1.82426 -1.1291,2.00576 -0.5633,2.00576 0.2191,0 0.7762,-0.53068 1.238,-1.17929 z m -13.6038,-0.53035 c 0,-0.23507 -0.2885,-0.42741 -0.6411,-0.42741 -0.5041,0 -0.6411,-0.59362 -0.6411,-2.77816 0,-1.52798 -0.1443,-2.77553 -0.3206,-2.77232 -1.5945,0.029 -3.1608,1.27639 -1.6028,1.27639 0.4844,0 0.6412,0.52239 0.6412,2.13705 0,1.61466 -0.1568,2.13704 -0.6412,2.13704 -0.3526,0 -0.6411,0.19234 -0.6411,0.42741 0,0.23508 0.8655,0.42741 1.9234,0.42741 1.0578,0 1.9233,-0.19233 1.9233,-0.42741 z m -11.54,-1.71869 c 0,-0.17979 -0.2725,-0.43145 -0.6055,-0.55923 -0.5129,-0.19682 -0.4852,-0.69985 0.181,-3.28983 0.4326,-1.68161 0.8645,-3.13551 0.9599,-3.23088 0.095,-0.0954 0.8313,1.43426 1.6355,3.39919 0.8041,1.96492 1.6443,3.64705 1.8671,3.73805 0.2229,0.091 0.8684,-1.70332 1.4345,-3.98739 0.7807,-3.1496 1.225,-4.21491 1.8388,-4.40975 1.401,-0.44464 0.8805,-1.05411 -0.9002,-1.05411 -1.584,0 -2.3351,0.57511 -1.2314,0.94298 0.3477,0.11591 0.3291,0.82532 -0.068,2.60008 -0.3004,1.34237 -0.6708,2.44067 -0.8232,2.44067 -0.1524,0 -0.8753,-1.34634 -1.6064,-2.99186 -1.2306,-2.76963 -1.4272,-2.99187 -2.6468,-2.99187 -0.7246,0 -1.3175,0.19234 -1.3175,0.42741 0,0.23508 0.2667,0.42741 0.5925,0.42741 0.8672,0 -0.9777,7.1829 -1.9905,7.74966 -1.1873,0.66448 -0.8621,1.02348 0.9706,1.07153 0.9403,0.0247 1.7097,-0.10227 1.7097,-0.28206 z m 21.4436,-0.27089 c 0.7835,-0.709 1.066,-1.8571 0.4571,-1.8571 -0.1786,0 -0.5649,0.38467 -0.8585,0.85482 -0.5849,0.9366 -1.4623,1.17587 -1.1754,0.32056 0.099,-0.29385 0.3884,-1.35169 0.6442,-2.35075 0.3485,-1.36162 0.6749,-1.81649 1.3033,-1.81649 0.4611,0 0.8384,-0.19234 0.8384,-0.42741 0,-0.23508 -0.2885,-0.42741 -0.6412,-0.42741 -0.4312,0 -0.6411,-0.43137 -0.6411,-1.31785 0,-1.56074 -0.9176,-1.51279 -1.2879,0.0673 -0.1512,0.64503 -0.5998,1.08844 -1.1872,1.17341 -1.1557,0.16719 -1.2608,0.93195 -0.128,0.93195 0.7663,0 0.7827,0.12662 0.2688,2.07489 -0.8144,3.08727 0.4507,4.54498 2.4075,2.77407 z"
       id="path131"
       transform="matrix(0.73713696,0,0,0.73713696,145.34572,90.201238)" />
    <path
       style="fill:#ececec;stroke-width:0.579994;stroke-dasharray:none"
       d="m 1198.4556,255.99247 c -3.3636,-0.72502 -8.0734,-3.00194 -10.6853,-5.16568 -6.1995,-5.13597 -9.403,-11.88558 -9.403,-19.81208 0,-6.8307 2.1982,-12.3451 6.8991,-17.3072 8.0253,-8.47135 19.4007,-10.54319 29.8581,-5.43816 6.3235,3.08696 11.6312,9.7756 13.457,16.95828 3.3973,13.36484 -5.8946,27.86733 -19.7337,30.79965 -3.5843,0.75947 -6.7566,0.74885 -10.3922,-0.0348 z m 12.0407,-18.03628 c -2.0718,-2.9096 -2.1747,-7.75202 -0.2258,-10.62389 1.1673,-1.72012 1.0337,-2.41705 -0.242,-1.26256 -2.7913,2.52609 -2.9812,9.23975 -0.3545,12.53148 0.2344,0.29384 0.7043,0.53426 1.0442,0.53426 0.4853,0 0.4377,-0.25304 -0.2219,-1.17929 z m 8.4656,-0.0899 c 0.4971,-0.69807 1.1159,-2.28482 1.375,-3.52613 0.5826,-2.79031 -0.3275,-6.44933 -1.9934,-8.01437 -1.3397,-1.25857 -1.3914,-0.58512 -0.1203,1.56579 0.7508,1.27028 0.9617,2.28348 0.9617,4.61908 0,2.3356 -0.2109,3.34879 -0.9617,4.61908 -1.0781,1.82426 -1.1291,2.00576 -0.5633,2.00576 0.2191,0 0.805,-0.57114 1.302,-1.26921 z m -13.6678,-1.11207 c 0,-0.99914 -0.061,-1.03799 -0.6716,-0.42741 -0.3694,0.36941 -0.9945,0.66647 -1.3891,0.66015 -0.512,-0.008 -0.3185,-0.3448 0.6755,-1.17538 1.4605,-1.22036 1.8383,-2.89056 0.8723,-3.85655 -0.6611,-0.66117 -2.5871,-0.66117 -3.2483,0 -0.7218,0.72182 -0.6387,2.05156 0.1282,2.05156 0.3638,0 0.6412,-0.3834 0.6412,-0.88616 0,-0.61333 0.2302,-0.84226 0.7479,-0.7436 1.3232,0.2522 1.0872,1.76788 -0.5176,3.32328 -0.8319,0.80632 -1.5126,1.62064 -1.5126,1.8096 0,0.18896 0.9617,0.34356 2.1371,0.34356 2.0104,0 2.137,-0.0651 2.137,-1.09905 z m -11.54,-0.99226 c 0,-0.20993 -0.2725,-0.48624 -0.6055,-0.61402 -0.5129,-0.19682 -0.4852,-0.69985 0.181,-3.28983 0.4326,-1.68161 0.8616,-3.1326 0.9534,-3.2244 0.092,-0.0918 0.8278,1.45403 1.6355,3.4352 0.8077,1.98117 1.6609,3.62563 1.896,3.65435 0.235,0.0287 0.9073,-1.79029 1.4939,-4.04226 0.7586,-2.9126 1.283,-4.1632 1.8165,-4.33253 1.3395,-0.42514 0.7929,-0.9268 -0.9597,-0.88084 -1.787,0.0469 -2.0134,0.22564 -1.2511,0.98797 0.4211,0.42115 0.137,2.33823 -0.7153,4.82676 -0.1218,0.35553 -0.8081,-0.75369 -1.5868,-2.56445 -1.2678,-2.94833 -1.4774,-3.20117 -2.7561,-3.32491 -0.7767,-0.0752 -1.3841,0.0655 -1.3841,0.32055 0,0.24997 0.2665,0.45449 0.5922,0.45449 0.8527,0 -0.8329,6.80014 -1.9241,7.76188 -1.1586,1.02122 -1.0152,1.21372 0.9045,1.21372 0.9403,0 1.7097,-0.17176 1.7097,-0.38168 z m 21.4436,-0.32568 c 0.7835,-0.709 1.066,-1.8571 0.4571,-1.8571 -0.1786,0 -0.5649,0.38467 -0.8585,0.85482 -0.5849,0.9366 -1.4623,1.17587 -1.1754,0.32056 0.099,-0.29385 0.3884,-1.35168 0.6442,-2.35075 0.3485,-1.36161 0.6749,-1.81649 1.3033,-1.81649 0.4611,0 0.8384,-0.19234 0.8384,-0.42741 0,-0.23508 -0.2885,-0.42741 -0.6412,-0.42741 -0.4312,0 -0.6411,-0.43137 -0.6411,-1.31785 0,-1.56074 -0.9176,-1.51279 -1.2879,0.0673 -0.1512,0.64503 -0.5998,1.08844 -1.1872,1.17341 -1.1557,0.16719 -1.2608,0.93195 -0.128,0.93195 0.7663,0 0.7827,0.12662 0.2688,2.07489 -0.8144,3.08727 0.4507,4.54498 2.4075,2.77407 z"
       id="path132"
       transform="matrix(0.73713696,0,0,0.73713696,145.34572,90.201238)" />
    <path
       style="fill:#ececec;stroke-width:0.579994;stroke-dasharray:none"
       d="m 1197.6008,329.07535 c -8.8547,-2.31517 -16.3125,-9.71453 -18.5559,-18.41051 -0.8594,-3.33096 -0.8711,-9.48709 -0.024,-12.73823 2.2549,-8.65705 9.7196,-16.05228 18.5802,-18.40716 2.7891,-0.74127 8.4561,-0.82221 11.6258,-0.16605 5.8217,1.20513 11.9858,5.45413 15.5814,10.74054 10.0083,14.71456 2.0403,34.90944 -15.3962,39.02139 -3.3029,0.77891 -8.7496,0.76047 -11.811,-0.04 z m 12.5428,-18.84979 c -1.6902,-2.88408 -1.6995,-6.79805 -0.023,-9.65 1.2653,-2.15261 1.0487,-2.66772 -0.4493,-1.06852 -1.3069,1.39517 -1.8126,3.03468 -1.8126,5.87688 0,2.84219 0.5057,4.4817 1.8126,5.87688 1.489,1.58952 1.7174,1.08908 0.4724,-1.03524 z m 9.2752,-0.26679 c 1.4972,-2.66309 1.427,-6.69452 -0.1639,-9.40921 -0.646,-1.1023 -1.3588,-2.00419 -1.5839,-2.00419 -0.6096,0 -0.509,0.38014 0.5522,2.0866 0.7744,1.24516 0.9617,2.17078 0.9617,4.75195 0,2.58117 -0.1873,3.50678 -0.9617,4.75195 -1.1098,1.78469 -1.186,2.14588 -0.3881,1.83968 0.3155,-0.12105 1.0281,-1.0286 1.5837,-2.01678 z m -14.3689,0.30982 c 0.8313,-0.83128 0.8338,-1.04369 0.026,-2.19706 -0.4087,-0.58352 -0.4871,-1.01985 -0.2137,-1.18885 0.5855,-0.36185 0.5478,-1.80419 -0.057,-2.17794 -0.7956,-0.49171 -3.0317,-0.27447 -3.4162,0.33189 -0.5678,0.89531 -0.4321,1.20211 0.5317,1.20211 0.6249,0 0.8252,-0.19625 0.6545,-0.64112 -0.2665,-0.69459 0.7887,-0.91657 1.1992,-0.25227 0.3689,0.59679 -0.2085,1.7482 -0.8767,1.7482 -0.3274,0 -0.5953,0.19234 -0.5953,0.42741 0,0.23508 0.3974,0.42741 0.8832,0.42741 0.7061,0 0.8561,0.22907 0.7479,1.14242 -0.1676,1.4164 -1.1772,1.82968 -1.4955,0.61225 -0.2891,-1.10523 -1.4179,-1.19779 -1.4179,-0.11626 0,0.43097 0.1282,0.9118 0.285,1.06852 0.5432,0.54325 3.0765,0.28166 3.7449,-0.38671 z m 10.3952,-2.24793 c 0.2938,-0.36469 0.5282,-0.9629 0.5207,-1.32935 -0.01,-0.44528 -0.3049,-0.27568 -0.8921,0.5113 -1.2276,1.64552 -1.664,1.11482 -1.0547,-1.28258 0.3976,-1.56427 0.7318,-2.06348 1.4521,-2.16862 1.1293,-0.16485 1.2568,-0.93195 0.1549,-0.93195 -0.6245,0 -0.7431,-0.25678 -0.5926,-1.28223 0.1172,-0.79891 4e-4,-1.28222 -0.31,-1.28222 -0.274,0 -0.6993,0.577 -0.9451,1.28222 -0.2854,0.81865 -0.741,1.28223 -1.26,1.28223 -0.4472,0 -0.813,0.19234 -0.813,0.42741 0,0.23508 0.2885,0.42741 0.6411,0.42741 0.7323,0 0.7709,0.42137 0.2458,2.68313 -0.5948,2.56181 1.2584,3.64222 2.8529,1.66325 z m -21.691,0.35512 c 0,-0.23507 -0.2694,-0.42741 -0.5985,-0.42741 -0.4961,0 -0.4651,-0.51879 0.181,-3.03039 0.4287,-1.66671 0.8613,-3.11224 0.9614,-3.21228 0.1,-0.10005 0.8471,1.39558 1.6603,3.32361 0.8131,1.92802 1.669,3.56904 1.902,3.6467 0.233,0.0777 0.8707,-1.71336 1.4172,-3.98004 0.7646,-3.17167 1.1783,-4.16957 1.7954,-4.33096 1.4159,-0.37024 0.8565,-0.96482 -0.9077,-0.96482 -1.584,0 -2.3351,0.57511 -1.2314,0.94298 0.5211,0.17371 -0.3534,5.04075 -0.9057,5.04075 -0.1603,0 -0.8334,-1.34634 -1.4959,-2.99187 -1.1541,-2.86688 -1.2641,-2.99186 -2.6324,-2.99186 -0.7854,0 -1.428,0.19233 -1.428,0.42741 0,0.23507 0.273,0.42741 0.6067,0.42741 0.4904,0 0.5265,0.30705 0.1884,1.60278 -1.3141,5.03657 -1.7127,6.09058 -2.3029,6.09058 -0.3461,0 -0.6292,0.19234 -0.6292,0.42741 0,0.23508 0.7693,0.42741 1.7096,0.42741 0.9403,0 1.7097,-0.19233 1.7097,-0.42741 z"
       id="path133"
       transform="matrix(0.73713696,0,0,0.73713696,145.34572,90.201238)" />
    <path
       style="fill:#ececec;stroke-width:0.579994;stroke-dasharray:none"
       d="m 1200.1526,402.82716 c -10.0643,-1.5631 -18.5862,-9.26203 -21.1508,-19.10805 -0.3489,-1.33977 -0.6345,-4.21278 -0.6345,-6.38447 0,-9.74763 5.4042,-18.27449 14.3182,-22.59151 5.987,-2.89949 11.0272,-3.46903 17.0554,-1.92728 4.8244,1.23388 8.1066,3.13276 11.8136,6.83466 5.195,5.18787 7.6544,10.95548 7.6682,17.98263 0.03,15.09238 -14.2772,27.49156 -29.0701,25.19402 z m 10.3437,-19.55182 c -2.0718,-2.9096 -2.1747,-7.75202 -0.2258,-10.62389 1.1673,-1.72012 1.0337,-2.41705 -0.242,-1.26256 -1.4616,1.32273 -2.1699,3.43406 -2.1699,6.46794 0,2.32399 0.2127,3.25269 1.0865,4.74376 0.5976,1.01972 1.38,1.85404 1.7388,1.85404 0.5393,0 0.5069,-0.20405 -0.1876,-1.17929 z m 8.4016,0 c 2.46,-3.45472 2.0981,-9.25064 -0.7377,-11.81709 -1.1718,-1.06044 -1.1441,-0.2901 0.063,1.75246 0.7508,1.27028 0.9617,2.28348 0.9617,4.61908 0,2.33559 -0.2109,3.34879 -0.9617,4.61908 -1.0781,1.82426 -1.1291,2.00576 -0.5633,2.00576 0.2191,0 0.7762,-0.53068 1.238,-1.17929 z m -13.1764,-0.53035 c 0,-0.23507 -0.2404,-0.43035 -0.5342,-0.43395 -0.3622,-0.004 -0.3278,-0.15256 0.1068,-0.45995 0.4825,-0.3412 0.5089,-0.50705 0.1069,-0.67018 -0.3256,-0.13211 -0.5343,-1.03763 -0.5343,-2.31822 0,-1.4666 -0.1722,-2.10143 -0.5701,-2.10143 -0.5195,0 -3.704,4.16079 -3.704,4.83964 0,0.1591 0.7213,0.31159 1.6028,0.33886 0.8815,0.0273 1.2662,0.13753 0.8548,0.24504 -1.3778,0.36005 -0.7667,0.9876 0.9617,0.9876 0.9403,0 1.7096,-0.19233 1.7096,-0.42741 z m -11.9674,-1.72219 c 0,-0.17787 -0.2725,-0.42795 -0.6055,-0.55573 -0.5129,-0.19682 -0.4852,-0.69985 0.181,-3.28983 0.4326,-1.68161 0.8645,-3.13551 0.9599,-3.23088 0.095,-0.0954 0.8313,1.43426 1.6355,3.39919 0.8041,1.96492 1.6443,3.64705 1.8671,3.73805 0.2229,0.091 0.8684,-1.70332 1.4345,-3.98739 0.7807,-3.1496 1.225,-4.21491 1.8388,-4.40975 1.401,-0.44464 0.8805,-1.05411 -0.9002,-1.05411 -1.584,0 -2.3351,0.57511 -1.2314,0.94298 0.3477,0.11591 0.3291,0.82532 -0.068,2.60008 -0.3004,1.34237 -0.6708,2.44067 -0.8232,2.44067 -0.1524,0 -0.8753,-1.34634 -1.6064,-2.99186 -1.2306,-2.76963 -1.4272,-2.99187 -2.6468,-2.99187 -0.7246,0 -1.3175,0.19234 -1.3175,0.42741 0,0.23508 0.2667,0.42741 0.5925,0.42741 0.8672,0 -0.9777,7.1829 -1.9905,7.74966 -1.2176,0.68145 -0.8432,1.10937 0.9706,1.10937 0.9403,0 1.7097,-0.14553 1.7097,-0.3234 z m 21.4436,-0.26739 c 0.7835,-0.709 1.066,-1.8571 0.4571,-1.8571 -0.1786,0 -0.5649,0.38467 -0.8585,0.85482 -0.5849,0.9366 -1.4623,1.17587 -1.1754,0.32056 0.099,-0.29385 0.3884,-1.35169 0.6442,-2.35075 0.3485,-1.36162 0.6749,-1.81649 1.3033,-1.81649 0.4611,0 0.8384,-0.19234 0.8384,-0.42741 0,-0.23508 -0.2885,-0.42741 -0.6412,-0.42741 -0.4312,0 -0.6411,-0.43137 -0.6411,-1.31785 0,-1.56074 -0.9176,-1.51279 -1.2879,0.0673 -0.1512,0.64503 -0.5998,1.08844 -1.1872,1.17341 -1.1557,0.16719 -1.2608,0.93195 -0.128,0.93195 0.7663,0 0.7827,0.12662 0.2688,2.07489 -0.8144,3.08727 0.4507,4.54498 2.4075,2.77407 z"
       id="path134"
       transform="matrix(0.73713696,0,0,0.73713696,145.34572,90.201238)" />
    <path
       style="fill:#ececec;stroke-width:0.579994;stroke-dasharray:none"
       d="m 1198.1515,475.73134 c -4.0752,-0.9295 -9.2053,-3.80855 -12.2474,-6.8733 -4.9496,-4.98638 -7.1468,-9.91498 -7.4411,-16.6916 -0.2297,-5.28666 0.314,-8.06775 2.4344,-12.45243 2.9954,-6.1942 8.2061,-10.74857 14.9748,-13.08863 9.0425,-3.12616 18.8201,-0.73348 25.8815,6.33351 7.8649,7.87111 9.7053,19.33936 4.6989,29.28078 -1.8116,3.59744 -6.0375,8.20325 -9.3666,10.20877 -5.6633,3.41167 -12.8824,4.66333 -18.9345,3.2829 z m 6.6376,-17.02242 c 0.1005,-0.52992 -0.3227,-0.95077 -1.415,-1.40717 -1.7831,-0.74504 -1.7797,-1.58478 0.01,-1.89718 1.4764,-0.25804 1.6547,-1.01416 0.2849,-1.20833 -1.3101,-0.1857 -0.9605,-1.10654 0.485,-1.27766 1.3553,-0.16045 1.4743,-0.7256 0.2865,-1.36128 -0.6844,-0.36627 -1.0457,-0.28126 -1.8029,0.42417 -0.5208,0.48523 -0.9764,1.30968 -1.0125,1.83211 -0.036,0.52243 -0.2026,1.27522 -0.3703,1.67287 -0.4884,1.15859 -0.092,2.20642 1.0535,2.7861 0.5856,0.29628 0.8244,0.54153 0.5305,0.54499 -0.2938,0.003 -0.5342,0.21141 -0.5342,0.4621 0,0.78496 2.3311,0.24996 2.4868,-0.57072 z m 5.4962,-1.08518 c -1.7795,-1.97128 -1.9369,-7.46102 -0.2903,-10.12532 0.9564,-1.54745 1.0438,-1.92426 0.446,-1.92426 -0.2251,0 -0.9379,0.90188 -1.5839,2.00419 -0.9613,1.64042 -1.1733,2.51317 -1.1676,4.80835 0,1.54229 0.2597,3.285 0.5688,3.87269 0.8358,1.58931 2.3368,3.11679 2.5207,2.56514 0.088,-0.26266 -0.1346,-0.80302 -0.4937,-1.20079 z m 8.1555,0.66584 c 1.3502,-1.44127 1.8921,-3.22838 1.8838,-6.21231 -0.01,-2.1173 -0.2442,-3.09037 -1.1258,-4.59465 -0.6151,-1.04966 -1.4119,-1.90846 -1.7706,-1.90846 -0.5394,0 -0.5069,0.20405 0.1875,1.17929 2.0895,2.93448 2.2003,7.34817 0.2672,10.64671 -1.1709,1.99809 -0.8941,2.43945 0.5579,0.88942 z m -24.6867,-2.84939 c 0,-0.21549 -0.2355,-0.47028 -0.5233,-0.5662 -0.3987,-0.13291 -0.3355,-0.97056 0.2656,-3.52001 l 0.7887,-3.34559 1.6182,3.79173 c 0.89,2.08546 1.8082,3.85506 2.0403,3.93245 0.2322,0.0774 0.8721,-1.72554 1.422,-4.00651 0.7406,-3.07207 1.1954,-4.1984 1.7545,-4.3446 1.376,-0.35982 0.7818,-0.95249 -0.9549,-0.95249 -1.6007,0 -2.3316,0.57628 -1.2065,0.9513 0.3817,0.12723 0.3665,0.81171 -0.063,2.83611 -0.3115,1.46763 -0.7002,2.51411 -0.8639,2.32551 -0.1636,-0.18859 -0.8372,-1.64115 -1.4969,-3.2279 -1.1428,-2.74893 -1.2669,-2.88502 -2.6311,-2.88502 -0.7875,0 -1.4319,0.19234 -1.4319,0.42741 0,0.23508 0.2667,0.42741 0.5925,0.42741 0.9238,0 -1.0351,7.42974 -2.0083,7.61716 -1.4007,0.26974 -0.6986,0.93103 0.9884,0.93103 0.9403,0 1.7097,-0.17631 1.7097,-0.39179 z m 21.4436,-0.31557 c 0.4299,-0.38905 0.7747,-1.01413 0.7663,-1.38908 -0.011,-0.47103 -0.335,-0.2906 -1.0496,0.5838 -0.5689,0.69604 -1.1422,1.15759 -1.2741,1.02566 -0.132,-0.13192 -0.011,-1.23033 0.2682,-2.4409 0.376,-1.62896 0.7046,-2.20103 1.2642,-2.20103 0.4159,0 0.8751,-0.19234 1.0204,-0.42741 0.1452,-0.23508 -0.099,-0.42741 -0.5419,-0.42741 -0.6525,0 -0.7702,-0.24429 -0.6178,-1.28223 0.1371,-0.9347 0.016,-1.28223 -0.448,-1.28223 -0.365,0 -0.7456,0.54667 -0.8927,1.28223 -0.1836,0.91814 -0.5022,1.28223 -1.1219,1.28223 -0.4761,0 -0.8655,0.19233 -0.8655,0.42741 0,0.23507 0.2885,0.42741 0.6411,0.42741 0.7563,0 0.7922,0.50723 0.1896,2.67705 -0.2457,0.88469 -0.3294,1.79827 -0.1861,2.03019 0.4051,0.6554 1.9828,0.49713 2.8478,-0.28569 z"
       id="path135"
       transform="matrix(0.73713696,0,0,0.73713696,145.34572,90.201238)" />
    <rect
       style="fill:#1a1a1a;stroke-width:1.00029;stroke-dasharray:none"
       id="rect136"
       width="0.77189946"
       height="39.242432"
       x="666.29706"
       y="208.37547" />
    <text
       xml:space="preserve"
       style="font-style:normal;font-variant:normal;font-weight:normal;font-stretch:normal;font-size:7.86282px;font-family:Sans;-inkscape-font-specification:'Sans, Normal';font-variant-ligatures:normal;font-variant-caps:normal;font-variant-numeric:normal;font-variant-east-asian:normal;fill:#1a1a1a;stroke-width:1.00029;stroke-dasharray:none"
       x="-240.17221"
       y="662.94531"
       id="text136"
       transform="rotate(-90)"><tspan
         sodipodi:role="line"
         id="tspan136"
         style="stroke-width:1.00029"
         x="-240.17221"
         y="662.94531">Linear</tspan></text>
    <text
       xml:space="preserve"
       style="font-style:normal;font-variant:normal;font-weight:normal;font-stretch:normal;font-size:7.86282px;font-family:Sans;-inkscape-font-specification:'Sans, Normal';font-variant-ligatures:normal;font-variant-caps:normal;font-variant-numeric:normal;font-variant-east-asian:normal;fill:#1a1a1a;stroke-width:1.00029;stroke-dasharray:none"
       x="219.1554"
       y="-671.63489"
       id="text137"
       transform="rotate(90)"><tspan
         sodipodi:role="line"
         id="tspan137"
         style="stroke-width:1.00029"
         x="219.1554"
         y="-671.63489">Sin()</tspan></text>
    <text
       xml:space="preserve"
       style="font-style:normal;font-variant:normal;font-weight:normal;font-stretch:normal;font-size:17.6913px;font-family:Sans;-inkscape-font-specification:'Sans, Normal';font-variant-ligatures:normal;font-variant-caps:normal;font-variant-numeric:normal;font-variant-east-asian:normal;fill:#1a1a1a;stroke-width:1.00029;stroke-dasharray:none"
       x="658.93152"
       y="287.26151"
       id="text138"><tspan
         sodipodi:role="line"
         id="tspan138"
         style="font-size:17.6913px;stroke-width:1.00029"
         x="658.93152"
         y="287.26151">...</tspan></text>
    <text
       xml:space="preserve"
       style="font-style:normal;font-variant:normal;font-weight:normal;font-stretch:normal;font-size:17.6913px;font-family:Sans;-inkscape-font-specification:'Sans, Normal';font-variant-ligatures:normal;font-variant-caps:normal;font-variant-numeric:normal;font-variant-east-asian:normal;fill:#1a1a1a;stroke-width:1.00029;stroke-dasharray:none"
       x="903.50671"
       y="231.50299"
       id="text138-4"><tspan
         sodipodi:role="line"
         id="tspan138-7"
         style="font-size:17.6913px;stroke-width:1.00029"
         x="903.50671"
         y="231.50299">...</tspan></text>
  </g>
  <defs
     id="defs60">
    <marker
       id="arrow"
       viewBox="0 -5 10 10"
       markerWidth="7"
       markerHeight="7"
       orient="auto"
       refX="66.599998">
      <path
         d="M 0,-5 10,0 0,5"
         style="fill:none;stroke:#505050"
         id="path60" />
    </marker>
  </defs>
</svg>
